<svg xmlns="http://www.w3.org/2000/svg" viewBox="0 0 2437.91 599.75"><defs><style>.cls-1{fill:#fff;}.cls-2{isolation:isolate;}.cls-3{fill:none;stroke:#fff;stroke-linecap:round;stroke-linejoin:round;stroke-width:23px;}</style></defs><title>btn_play</title><g id="Capa_2" data-name="Capa 2"><g id="Capa_1-2" data-name="Capa 1"><g id="Capa_2-2" data-name="Capa 2"><g id="Capa_1-2-2" data-name="Capa 1-2"><path class="cls-1" d="M279.66,533.49s251.5-225.17,133.44-284.9c-121.35-61.41-165.24,92.75-165.24,92.75s-17.4.63-28.39-5.1c-15-7.83-16.09-21.4-16.09-21.4s56.18-168.76,195.94-137.18c67.9,15.29,115.28,63.05,93.63,135.92C461.4,420.08,279.66,533.49,279.66,533.49Z"/><path class="cls-1" d="M394,467.23s89.93-44,120.76-99.4S544,282.71,544,282.71l-22.87,32.14L502,301.58s-6.4,49.36-25.4,79.52C456,413.7,394,467.23,394,467.23Z"/><path class="cls-1" d="M273.3,553.37S351.3,519,418,507.88c60.32-10.07,109.51-7.54,109.51-7.54L540.21,454s-87,7.41-161.53,36.56C309.39,517.61,273.3,553.37,273.3,553.37Z"/><path class="cls-1" d="M76.3,328.08c0-7.33,5.69-13.27,12.68-13.27a13.26,13.26,0,0,1,0,26.49C82,341.34,76.3,335.4,76.3,328.08Z"/><path class="cls-1" d="M44.5,367.83a12.73,12.73,0,1,1,12.72,13.25A13,13,0,0,1,44.5,367.83Z"/><path class="cls-1" d="M12.74,414.25A13,13,0,0,1,25.46,401c7,0,12.68,5.94,12.68,13.27A13,13,0,0,1,25.46,427.5,13,13,0,0,1,12.74,414.25Z"/><path class="cls-1" d="M0,473.85a12.73,12.73,0,0,1,25.43-1.13v1.13c0,7.33-5.73,13.27-12.72,13.27A13,13,0,0,1,0,473.85Z"/><path class="cls-1" d="M19.1,533.49c0-7.33,5.69-13.27,12.68-13.27a13.28,13.28,0,0,1,0,26.54C24.79,546.76,19.1,540.82,19.1,533.49Z"/><path class="cls-1" d="M57.22,560a12.71,12.71,0,0,1,25.4-1v1c0,7.33-5.69,13.27-12.68,13.27A13,13,0,0,1,57.22,560Z"/><path class="cls-1" d="M101.7,586.48a12.73,12.73,0,0,1,25.44-1v1c0,7.33-5.73,13.27-12.72,13.27A13,13,0,0,1,101.7,586.48Z"/><path class="cls-1" d="M165.26,586.48A13,13,0,0,1,178,573.25c7,0,12.68,5.94,12.68,13.23S185,599.75,178,599.75a13,13,0,0,1-12.75-13.24Z"/><path class="cls-1" d="M216.1,573.25A13,13,0,0,1,228.82,560c7,0,12.68,5.94,12.68,13.27a12.71,12.71,0,0,1-25.4,1Q216.08,573.75,216.1,573.25Z"/><path class="cls-1" d="M584.69,387.71c0-7.29,5.69-13.23,12.68-13.23a13.26,13.26,0,0,1,0,26.49C590.38,401,584.69,395.08,584.69,387.71Z"/><path class="cls-1" d="M622.81,341.34a12.71,12.71,0,0,1,25.4-1.12v1.12c0,7.33-5.69,13.27-12.68,13.27A13,13,0,0,1,622.81,341.34Z"/><path class="cls-1" d="M648.21,308.23c0-7.33,5.73-13.27,12.72-13.27a13.26,13.26,0,1,1-12.71,13.79Q648.21,308.49,648.21,308.23Z"/><path class="cls-1" d="M680,275.08a12.71,12.71,0,1,1,25.4-1.12v.12q0,.51,0,1c0,7.33-5.69,13.27-12.68,13.27A13,13,0,0,1,680,275.08Z"/><path class="cls-1" d="M692.73,228.71c0-7.33,5.69-13.27,12.68-13.27a13.28,13.28,0,0,1,0,26.54A13,13,0,0,1,692.73,228.71Z"/><path class="cls-1" d="M699,182.33c0-7.33,5.73-13.27,12.72-13.27A13.26,13.26,0,1,1,699,182.84Z"/><path class="cls-1" d="M680,129.3a13,13,0,0,1,12.72-13.22c7,0,12.68,5.94,12.68,13.23s-5.69,13.27-12.68,13.27A13,13,0,0,1,680,129.31Z"/><path class="cls-1" d="M641.89,109.47c0-7.33,5.69-13.27,12.68-13.27a13.26,13.26,0,0,1,0,26.49A13,13,0,0,1,641.89,109.47Z"/><path class="cls-1" d="M597.37,96.2c0-7.33,5.73-13.27,12.72-13.27a13.28,13.28,0,0,1,0,26.54C603.1,109.47,597.37,103.53,597.37,96.2Z"/><path class="cls-1" d="M546.56,96.2c0-7.33,5.73-13.27,12.72-13.27a13.28,13.28,0,0,1,0,26.54A13,13,0,0,1,546.56,96.2Z"/><path class="cls-1" d="M591,420.86s12.59,4.8,12.68,13.23S591,447.36,591,447.36s29.32-3.33,28-19.12C618.34,419.89,591,420.86,591,420.86Z"/><path class="cls-1" d="M80.81,197.54l33.61,104,19-13.23-6.28-13.23,19-19.88,25.44,6.65,3-21.52ZM105.07,223l28.39,19-12.68,13.23Z"/><polygon class="cls-1" points="129.45 158.79 190.65 241.98 209.73 222.09 177.98 188.95 247.85 188.95 184.29 109.47 165.26 129.3 203.37 169.07 129.45 158.79"/><path class="cls-1" d="M209.74,102.81c-3.07,4.17,6.36,26.49,6.36,26.49l19-6.61,31.8,66.25,32-16.94-38.12-59.6,6.1-16.21-19-19.87S212.77,98.64,209.74,102.81Z"/><polygon class="cls-1" points="266.93 63.05 311.41 169.07 349.53 149.19 343.17 122.69 324.13 135.96 311.41 109.47 330.49 102.81 324.13 82.93 305.05 96.2 298.69 76.32 330.49 63.05 311.41 43.21 266.93 63.05"/><polygon class="cls-1" points="336.81 36.56 362.25 142.57 387.69 135.96 368.61 82.93 426.78 128.46 413.09 16.68 387.69 23.33 400.37 82.93 336.81 36.56"/><path class="cls-1" d="M438.56,122.69l18.57,6.19,8.63-28.64,30.33-1.73,18.7,24.18,12.72-19.88L463.93,10.08Zm37-67.77,15.63,26.49L469,83.56Z"/><g class="cls-2"><g class="cls-2"><path class="cls-1" d="M1272.15,171.33h92.44v24.73h-59.17V275h48v23.55h-48v87.43h59.76v23.85h-93Z"/><path class="cls-1" d="M1392,171.33h22.67l67.71,158.38V171.33H1510V409.79h-21.2L1420.23,247v162.8H1392Z"/><path class="cls-1" d="M1603,171.33h31.21l37.68,175.75,35.92-175.75h30.32l-52.7,238.46h-29.14Z"/><path class="cls-1" d="M1765.25,171.33h32.68V409.79h-32.68Z"/></g><g class="cls-2"><path class="cls-1" d="M1824.7,171.33h31.21l37.68,175.75,35.92-175.75h30.32l-52.7,238.46H1878Z"/></g><g class="cls-2"><path class="cls-1" d="M1993.25,392.57q-15.17-19.87-15.16-57.55V244.64q0-37.09,15.31-56.23t50-19.14q34.73,0,49.9,19.28t15.16,56.08v90.67q0,37.09-15.31,57.11t-49.75,20Q2008.4,412.44,1993.25,392.57Zm75.22-17.22q6.47-10.89,6.48-33V237.87q0-21.78-6.48-32.24t-25-10.45q-18.84,0-25.32,10.45t-6.48,32.24V342.38q0,22.08,6.48,33t25.32,10.89Q2062,386.24,2068.46,375.35Z"/></g></g><rect class="cls-3" x="980.98" y="138.28" width="1445.43" height="305.87"/><path class="cls-3" d="M1049.4,127.66A35.7,35.7,0,0,1,1085.08,92h60.09c-15.62-52.47-67.39-73.56-130.79-80.46V43.43a35.69,35.69,0,0,1-71.37,0V11.5C879.6,18.4,827.83,39.5,812.21,92h60.1a35.69,35.69,0,1,1,0,71.38h-69v55.42h87.78a35.69,35.69,0,0,1,0,71.37H803.3v34.75q0,10.72.56,20.66h68.45a35.69,35.69,0,1,1,1.19,71.37H819.81c22.31,47.58,83.07,59.69,158.88,59.69,58.56,0,108.14-7.23,138-32.44"/><rect class="cls-3" x="953.6" y="476.61" width="50.19" height="74.49"/><polygon class="cls-3" points="819.8 586.5 828.68 551.1 1128.71 551.1 1137.59 586.49 819.8 586.5"/></g></g></g></g></svg>