<svg xmlns="http://www.w3.org/2000/svg" viewBox="0 0 2437.57 600.38"><defs><style>.cls-1{isolation:isolate;}.cls-2{fill:#ea2626;}.cls-3{fill:none;stroke:#fff;stroke-linecap:round;stroke-linejoin:round;stroke-width:23px;}.cls-4{fill:#fc0;}.cls-5{fill:#0868b6;}.cls-6{fill:#e42508;}.cls-7{fill:#f17844;}</style></defs><title>hover btn play</title><g id="Capa_2" data-name="Capa 2"><g id="Capa_1-2" data-name="Capa 1"><g id="Capa_2-2" data-name="Capa 2"><g id="Capa_1-2-2" data-name="Capa 1-2"><g class="cls-1"><g class="cls-1"><path class="cls-2" d="M1271.8,171.33h92.44v24.73h-59.17V275h48v23.55h-48v87.43h59.76v23.85h-93Z"/><path class="cls-2" d="M1391.62,171.33h22.67L1482,329.72V171.33h27.67V409.79h-21.2L1419.88,247v162.8h-28.26Z"/><path class="cls-2" d="M1602.69,171.33h31.21l37.68,175.75,35.92-175.75h30.32l-52.7,238.46H1656Z"/><path class="cls-2" d="M1764.9,171.33h32.68V409.79H1764.9Z"/></g><g class="cls-1"><path class="cls-2" d="M1824.35,171.33h31.21l37.68,175.75,35.92-175.75h30.32l-52.7,238.46h-29.14Z"/></g><g class="cls-1"><path class="cls-2" d="M1992.89,392.57q-15.17-19.87-15.16-57.55V244.64q0-37.09,15.31-56.23t50-19.14q34.73,0,49.9,19.28t15.16,56.08v90.67q0,37.09-15.31,57.11t-49.75,20Q2008.05,412.44,1992.89,392.57Zm75.22-17.22q6.47-10.89,6.48-33V237.87q0-21.78-6.48-32.24t-25-10.45q-18.84,0-25.32,10.45t-6.48,32.24V342.38q0,22.08,6.48,33t25.32,10.89Q2061.63,386.24,2068.11,375.35Z"/></g></g><rect class="cls-3" x="980.64" y="138.28" width="1445.43" height="305.87"/><path class="cls-3" d="M1049.05,127.66A35.7,35.7,0,0,1,1084.74,92h60.09c-15.61-52.51-67.38-73.6-130.83-80.5V43.43a35.69,35.69,0,0,1-71.37,0V11.5c-63.41,6.9-115.18,28-130.8,80.46H872a35.69,35.69,0,1,1,0,71.38H803v55.42h87.78a35.69,35.69,0,0,1,0,71.37H803v34.75q0,10.72.56,20.66H872a35.69,35.69,0,1,1,1.19,71.37H819.5c22.31,47.58,83.07,59.69,158.88,59.69,58.56,0,108.14-7.23,138-32.44"/><rect class="cls-3" x="953.26" y="476.61" width="50.19" height="74.49"/><polygon class="cls-3" points="819.46 586.5 828.34 551.1 1128.37 551.1 1137.24 586.49 819.46 586.5"/></g><g id="Capa_3" data-name="Capa 3"><path class="cls-4" d="M279.63,534.12S531.13,309,413.07,249.22C291.72,187.81,247.83,342,247.83,342s-17.4.63-28.39-5.1c-15-7.83-16.09-21.4-16.09-21.4s56.19-168.73,195.94-137.18c67.9,15.29,115.28,63.05,93.63,135.92C461.37,420.69,279.63,534.12,279.63,534.12Z"/><path class="cls-5" d="M394,467.86s89.93-44,120.76-99.4S544,283.34,544,283.34l-22.9,32.13L502,302.21s-6.4,49.36-25.4,79.52C456,414.33,394,467.86,394,467.86Z"/><path class="cls-6" d="M273.27,554s78-34.37,144.68-45.49C478.27,498.44,527.46,501,527.46,501l12.72-46.37s-87,7.41-161.53,36.56C309.36,518.24,273.27,554,273.27,554Z"/><path class="cls-4" d="M76.27,328.74c0-7.33,5.69-13.27,12.68-13.27A13.27,13.27,0,1,1,89,342C82,342,76.27,336,76.27,328.74Z"/><path class="cls-4" d="M44.47,368.46a12.73,12.73,0,1,1,12.72,13.27A13,13,0,0,1,44.47,368.46Z"/><path class="cls-4" d="M12.71,414.88a13,13,0,0,1,12.72-13.27c7,0,12.68,5.94,12.68,13.27a13,13,0,0,1-12.68,13.23A13,13,0,0,1,12.71,414.88Z"/><path class="cls-7" d="M0,474.48a13,13,0,0,1,12.72-13.23,13,13,0,0,1,12.72,13.23c0,7.33-5.73,13.27-12.72,13.27A13,13,0,0,1,0,474.48Z"/><path class="cls-7" d="M19.07,534.12c0-7.33,5.69-13.27,12.68-13.27a13.28,13.28,0,0,1,0,26.54C24.76,547.39,19.07,541.45,19.07,534.12Z"/><path class="cls-6" d="M57.19,560.61a12.71,12.71,0,0,1,25.4-1v1c0,7.33-5.69,13.27-12.68,13.27A13,13,0,0,1,57.19,560.61Z"/><path class="cls-6" d="M101.67,587.11A12.73,12.73,0,0,1,127.11,586v.13q0,.5,0,1c0,7.33-5.73,13.27-12.72,13.27A13,13,0,0,1,101.67,587.11Z"/><path class="cls-6" d="M165.23,587.11A13,13,0,0,1,178,573.88h0c7,0,12.68,5.94,12.68,13.23S185,600.38,178,600.38a13,13,0,0,1-12.77-13.23Z"/><path class="cls-6" d="M216.07,573.88a13,13,0,0,1,12.72-13.27c7,0,12.68,5.94,12.68,13.27A12.71,12.71,0,0,1,216.08,575v-.13Q216.05,574.39,216.07,573.88Z"/><path class="cls-6" d="M584.66,388.34c0-7.29,5.69-13.23,12.68-13.23a13.26,13.26,0,0,1,0,26.49C590.35,401.61,584.66,395.67,584.66,388.34Z"/><path class="cls-6" d="M622.78,342a12.71,12.71,0,0,1,25.4-1.12V342c0,7.33-5.69,13.27-12.68,13.27A13,13,0,0,1,622.78,342Z"/><path class="cls-6" d="M648.18,308.86c0-7.33,5.73-13.27,12.72-13.27a13.26,13.26,0,1,1-12.71,13.79Q648.18,309.12,648.18,308.86Z"/><path class="cls-6" d="M680,275.71a12.71,12.71,0,1,1,25.4-1.12v.12q0,.5,0,1c0,7.33-5.69,13.27-12.68,13.27A13,13,0,0,1,680,275.71Z"/><path class="cls-6" d="M692.7,229.34c0-7.33,5.69-13.27,12.68-13.27a13.28,13.28,0,0,1,0,26.54C698.38,242.61,692.7,236.67,692.7,229.34Z"/><path class="cls-7" d="M699,183c0-7.33,5.73-13.27,12.72-13.27A13.26,13.26,0,1,1,699,183.51V183Z"/><path class="cls-7" d="M680,129.93a13,13,0,0,1,12.72-13.23c7,0,12.68,5.94,12.68,13.23s-5.69,13.27-12.68,13.27A13,13,0,0,1,680,129.93Z"/><path class="cls-4" d="M641.86,110.1c0-7.33,5.69-13.27,12.68-13.27a13.26,13.26,0,0,1,0,26.49C647.55,123.32,641.86,117.38,641.86,110.1Z"/><path class="cls-4" d="M597.34,96.83c0-7.3,5.73-13.3,12.72-13.3a13.28,13.28,0,0,1,0,26.54C603.07,110.1,597.34,104.16,597.34,96.83Z"/><path class="cls-4" d="M546.5,96.83c0-7.3,5.73-13.3,12.72-13.3a13.28,13.28,0,0,1,0,26.54C552.23,110.1,546.5,104.16,546.5,96.83Z"/><path class="cls-6" d="M591,421.53s12.59,4.8,12.68,13.23S591,448,591,448s29.32-3.33,28-19.12C618.31,420.53,591,421.53,591,421.53Z"/><path d="M80.78,198.17l33.61,104,19-13.23-6.32-13.27,19-19.88,25.52,6.74,3-21.52ZM105,223.65l28.39,19-12.64,13.18Z"/><polygon points="129.43 159.42 190.62 242.61 209.71 222.72 177.95 189.58 247.82 189.58 184.27 110.1 165.23 129.94 203.34 169.7 129.43 159.42"/><path d="M209.71,103.44c-3.07,4.17,6.36,26.49,6.36,26.49l19-6.61,31.84,66.21,19-19.88L247.79,110l19.08-13.27L247.83,77S212.74,99.27,209.71,103.44Z"/><polygon points="266.9 63.68 311.38 169.7 349.5 149.82 343.14 123.32 324.1 136.59 311.38 110.1 330.46 103.44 324.1 83.56 305.02 96.83 298.66 76.95 330.46 63.68 311.38 43.84 266.9 63.68"/><polygon points="336.78 37.19 362.22 143.2 387.66 136.59 368.58 83.56 426.75 129.09 413.06 17.31 387.66 23.96 400.34 83.56 336.78 37.19"/><path d="M438.5,123.32l18.58,6.21,8.63-28.64L496,99.15l18.7,24.18,12.72-19.88L463.9,10.69Zm37-67.77L491.13,82,469,84.19Z"/></g></g></g></g></svg>