<svg xmlns="http://www.w3.org/2000/svg" viewBox="0 0 724.46 589.68"><defs><style>.cls-1{fill:#fc0;}.cls-1,.cls-2,.cls-3,.cls-4,.cls-5{fill-rule:evenodd;}.cls-2{fill:#0868b6;}.cls-3{fill:#e42508;}.cls-4{fill:#f17844;}</style></defs><title>Recurso 1</title><g id="Capa_2" data-name="Capa 2"><g id="Capa_1-2" data-name="Capa 1"><path class="cls-1" d="M279.63,523.43s251.5-225.17,133.44-284.9c-121.35-61.41-165.24,92.75-165.24,92.75s-17.4.63-28.39-5.1c-15-7.83-16.09-21.4-16.09-21.4S259.54,136,399.3,167.6c67.9,15.29,115.28,63.05,93.63,135.92C461.38,410,279.63,523.43,279.63,523.43Z"/><path class="cls-2" d="M394,457.17s89.93-44,120.76-99.4S544,272.64,544,272.64l-22.87,32.14L502,291.51s-6.4,49.36-25.4,79.52C456,403.64,394,457.17,394,457.17Z"/><path class="cls-3" d="M273.27,543.31s78-34.37,144.68-45.49c60.32-10.07,109.51-7.54,109.51-7.54l12.72-46.37s-87,7.41-161.53,36.56C309.37,507.55,273.27,543.31,273.27,543.31Z"/><path class="cls-1" d="M76.28,318c0-7.33,5.69-13.27,12.68-13.27a13.26,13.26,0,0,1,0,26.49C82,331.27,76.28,325.33,76.28,318Z"/><path class="cls-1" d="M44.48,357.77A12.73,12.73,0,1,1,57.2,371,13,13,0,0,1,44.48,357.77Z"/><path class="cls-1" d="M12.72,404.18a13,13,0,0,1,12.72-13.27c7,0,12.68,5.94,12.68,13.27s-5.69,13.23-12.68,13.23A13,13,0,0,1,12.72,404.18Z"/><path class="cls-4" d="M0,463.78a13,13,0,0,1,12.72-13.23,13,13,0,0,1,12.72,13.23c0,7.33-5.73,13.27-12.72,13.27A13,13,0,0,1,0,463.78Z"/><path class="cls-4" d="M19.08,523.43c0-7.33,5.69-13.27,12.68-13.27a13.28,13.28,0,0,1,0,26.54C24.77,536.69,19.08,530.75,19.08,523.43Z"/><path class="cls-3" d="M57.2,549.92a12.71,12.71,0,1,1,25.4,0c0,7.33-5.69,13.27-12.68,13.27A13,13,0,0,1,57.2,549.92Z"/><path class="cls-3" d="M101.68,576.41a12.73,12.73,0,1,1,25.44,0c0,7.33-5.73,13.27-12.72,13.27A13,13,0,0,1,101.68,576.41Z"/><path class="cls-3" d="M165.24,576.41A13,13,0,0,1,178,563.19c7,0,12.68,5.94,12.68,13.23s-5.69,13.27-12.68,13.27A13,13,0,0,1,165.24,576.41Z"/><path class="cls-3" d="M216.08,563.19a13,13,0,0,1,12.72-13.27c7,0,12.68,5.94,12.68,13.27a12.71,12.71,0,1,1-25.4,0Z"/><path class="cls-3" d="M584.67,377.65c0-7.29,5.69-13.23,12.68-13.23a13.26,13.26,0,0,1,0,26.49C590.35,390.92,584.67,385,584.67,377.65Z"/><path class="cls-3" d="M622.79,331.27a12.71,12.71,0,1,1,25.4,0c0,7.33-5.69,13.27-12.68,13.27A13,13,0,0,1,622.79,331.27Z"/><path class="cls-3" d="M648.18,298.17c0-7.33,5.73-13.27,12.72-13.27a13.26,13.26,0,1,1-12.72,13.27Z"/><path class="cls-3" d="M680,265a12.71,12.71,0,1,1,25.4,0c0,7.33-5.69,13.27-12.68,13.27A13,13,0,0,1,680,265Z"/><path class="cls-3" d="M692.71,218.64c0-7.33,5.69-13.27,12.68-13.27a13.28,13.28,0,0,1,0,26.54C698.39,231.91,692.71,226,692.71,218.64Z"/><path class="cls-4" d="M699,172.27c0-7.33,5.73-13.27,12.72-13.27A13.26,13.26,0,1,1,699,172.27Z"/><path class="cls-4" d="M680,119.24A13,13,0,0,1,692.71,106c7,0,12.68,5.94,12.68,13.23s-5.69,13.27-12.68,13.27A13,13,0,0,1,680,119.24Z"/><path class="cls-1" d="M641.87,99.4c0-7.33,5.69-13.27,12.68-13.27a13.26,13.26,0,0,1,0,26.49C647.55,112.63,641.87,106.69,641.87,99.4Z"/><path class="cls-1" d="M597.35,86.14c0-7.33,5.73-13.27,12.72-13.27a13.28,13.28,0,0,1,0,26.54C603.07,99.4,597.35,93.46,597.35,86.14Z"/><path class="cls-1" d="M546.51,86.14c0-7.33,5.73-13.27,12.72-13.27a13.28,13.28,0,0,1,0,26.54C552.24,99.4,546.51,93.46,546.51,86.14Z"/><path class="cls-3" d="M591,410.8s12.59,4.8,12.68,13.23S591,437.29,591,437.29s29.32-3.33,28-19.12C618.32,409.83,591,410.8,591,410.8Z"/><path class="cls-5" d="M80.79,187.48l33.61,104,19-13.23L127.12,265l19-19.88,25.44,6.65,3-21.52ZM105,213l28.39,19-12.68,13.23Z"/><polygon class="cls-5" points="129.44 148.73 190.63 231.91 209.72 212.03 177.96 178.88 247.83 178.88 184.28 99.4 165.24 119.24 203.35 159 129.44 148.73"/><path class="cls-5" d="M209.72,92.75c-3.07,4.17,6.36,26.49,6.36,26.49l19-6.61,31.8,66.25L286,159,247.83,99.4l19.08-13.27L247.83,66.25S212.75,88.58,209.72,92.75Z"/><polygon class="cls-5" points="266.91 52.99 311.39 159 349.51 139.12 343.15 112.63 324.11 125.9 311.39 99.4 330.47 92.75 324.11 72.87 305.03 86.14 298.67 66.25 330.47 52.99 311.39 33.15 266.91 52.99"/><polygon class="cls-5" points="336.79 26.49 362.23 132.51 387.67 125.9 368.59 72.87 426.76 118.4 413.07 6.61 387.67 13.27 400.35 72.87 336.79 26.49"/><path class="cls-5" d="M438.51,112.63l18.57,6.19,8.63-28.64L496,88.45l18.7,24.18,12.72-19.88L463.91,0Zm37-67.77,15.63,26.49L469,73.5Z"/></g></g></svg>