<svg xmlns="http://www.w3.org/2000/svg" viewBox="0 0 2437.9 599.75"><defs><style>.cls-1,.cls-2{fill:#fff;}.cls-2{font-size:294.39px;font-family:Oswald-Regular, Oswald;}.cls-3{letter-spacing:-0.01em;}.cls-4{fill:none;stroke:#fff;stroke-linecap:round;stroke-linejoin:round;stroke-width:23px;}</style></defs><title>btn_play</title><g id="Capa_2" data-name="Capa 2"><g id="Capa_1-2" data-name="Capa 1"><path class="cls-1" d="M279.65,533.49s251.5-225.17,133.44-284.9c-121.35-61.41-165.24,92.75-165.24,92.75s-17.4.63-28.39-5.1c-15-7.83-16.09-21.4-16.09-21.4s56.18-168.76,195.94-137.18c67.9,15.29,115.28,63.05,93.63,135.92C461.39,420.08,279.65,533.49,279.65,533.49Z"/><path class="cls-1" d="M394,467.23s89.93-44,120.76-99.4S544,282.71,544,282.71l-22.87,32.14L502,301.58s-6.4,49.36-25.4,79.52C456,413.7,394,467.23,394,467.23Z"/><path class="cls-1" d="M273.29,553.37S351.29,519,418,507.88c60.32-10.07,109.51-7.54,109.51-7.54L540.2,454s-87,7.41-161.53,36.56C309.38,517.61,273.29,553.37,273.29,553.37Z"/><path class="cls-1" d="M76.29,328.08c0-7.33,5.69-13.27,12.68-13.27a13.26,13.26,0,0,1,0,26.49C82,341.34,76.29,335.4,76.29,328.08Z"/><path class="cls-1" d="M44.49,367.83a12.73,12.73,0,1,1,12.72,13.25A13,13,0,0,1,44.49,367.83Z"/><path class="cls-1" d="M12.73,414.25A13,13,0,0,1,25.45,401c7,0,12.68,5.94,12.68,13.27a13,13,0,0,1-12.68,13.23A13,13,0,0,1,12.73,414.25Z"/><path class="cls-1" d="M0,473.85a12.73,12.73,0,1,1,25.44-1q0,.51,0,1c0,7.33-5.73,13.27-12.72,13.27A13,13,0,0,1,0,473.85Z"/><path class="cls-1" d="M19.09,533.49c0-7.33,5.69-13.27,12.68-13.27a13.28,13.28,0,0,1,0,26.54C24.78,546.76,19.09,540.82,19.09,533.49Z"/><path class="cls-1" d="M57.21,560a12.71,12.71,0,0,1,25.4-1q0,.5,0,1c0,7.33-5.69,13.27-12.68,13.27A13,13,0,0,1,57.21,560Z"/><path class="cls-1" d="M101.69,586.48a12.73,12.73,0,0,1,25.44-1q0,.51,0,1c0,7.33-5.73,13.27-12.72,13.27A13,13,0,0,1,101.69,586.48Z"/><path class="cls-1" d="M165.25,586.48A13,13,0,0,1,178,573.25c7,0,12.68,5.94,12.68,13.23S185,599.75,178,599.75A13,13,0,0,1,165.25,586.48Z"/><path class="cls-1" d="M216.09,573.25A13,13,0,0,1,228.81,560c7,0,12.68,5.94,12.68,13.27a12.71,12.71,0,0,1-25.4,1Q216.07,573.75,216.09,573.25Z"/><path class="cls-1" d="M584.68,387.71c0-7.29,5.69-13.23,12.68-13.23a13.26,13.26,0,0,1,0,26.49C590.37,401,584.68,395.08,584.68,387.71Z"/><path class="cls-1" d="M622.8,341.34a12.71,12.71,0,1,1,25.4-1q0,.51,0,1c0,7.33-5.69,13.27-12.68,13.27A13,13,0,0,1,622.8,341.34Z"/><path class="cls-1" d="M648.2,308.23c0-7.33,5.73-13.27,12.72-13.27a13.26,13.26,0,1,1-12.71,13.79Q648.2,308.49,648.2,308.23Z"/><path class="cls-1" d="M680,275.08a12.71,12.71,0,1,1,25.4-1q0,.51,0,1c0,7.33-5.69,13.27-12.68,13.27A13,13,0,0,1,680,275.08Z"/><path class="cls-1" d="M692.72,228.71c0-7.33,5.69-13.27,12.68-13.27a13.28,13.28,0,0,1,0,26.54A13,13,0,0,1,692.72,228.71Z"/><path class="cls-1" d="M699,182.33c0-7.33,5.73-13.27,12.72-13.27A13.26,13.26,0,1,1,699,182.84Q699,182.59,699,182.33Z"/><path class="cls-1" d="M680,129.3a13,13,0,0,1,12.72-13.22c7,0,12.68,5.94,12.68,13.23s-5.69,13.27-12.68,13.27A13,13,0,0,1,680,129.3Z"/><path class="cls-1" d="M641.88,109.47c0-7.33,5.69-13.27,12.68-13.27a13.26,13.26,0,0,1,0,26.49A13,13,0,0,1,641.88,109.47Z"/><path class="cls-1" d="M597.36,96.2c0-7.33,5.73-13.27,12.72-13.27a13.28,13.28,0,0,1,0,26.54C603.09,109.47,597.36,103.53,597.36,96.2Z"/><path class="cls-1" d="M546.55,96.2c0-7.33,5.73-13.27,12.72-13.27a13.28,13.28,0,0,1,0,26.54A13,13,0,0,1,546.55,96.2Z"/><path class="cls-1" d="M591,420.86s12.59,4.8,12.68,13.23S591,447.36,591,447.36s29.32-3.33,28-19.12C618.33,419.89,591,420.86,591,420.86Z"/><path class="cls-1" d="M80.8,197.54l33.61,104,19-13.23-6.28-13.23,19-19.88,25.44,6.65,3-21.52ZM105.06,223l28.39,19-12.68,13.23Z"/><polygon class="cls-1" points="129.44 158.79 190.64 241.98 209.72 222.09 177.97 188.95 247.84 188.95 184.28 109.47 165.25 129.3 203.36 169.07 129.44 158.79"/><path class="cls-1" d="M209.73,102.81c-3.07,4.17,6.36,26.49,6.36,26.49l19-6.61,31.8,66.25,32-16.94-38.12-59.6,6.1-16.21-19-19.87S212.76,98.64,209.73,102.81Z"/><polygon class="cls-1" points="266.92 63.05 311.4 169.07 349.52 149.19 343.16 122.69 324.12 135.96 311.4 109.47 330.48 102.81 324.12 82.93 305.04 96.2 298.68 76.32 330.48 63.05 311.4 43.21 266.92 63.05"/><polygon class="cls-1" points="336.8 36.56 362.24 142.57 387.68 135.96 368.6 82.93 426.77 128.46 413.08 16.68 387.68 23.33 400.36 82.93 336.8 36.56"/><path class="cls-1" d="M438.55,122.69l18.57,6.19,8.63-28.64,30.33-1.73,18.7,24.18,12.72-19.88L463.92,10.08Zm37-67.77,15.63,26.49L469,83.56Z"/><text class="cls-2" transform="translate(1253.59 409.79)">EN VI<tspan class="cls-3" x="564.33" y="0">V</tspan><tspan x="710.35" y="0">O</tspan></text><rect class="cls-4" x="980.97" y="138.28" width="1445.43" height="305.87"/><path class="cls-4" d="M1049.39,127.66A35.7,35.7,0,0,1,1085.07,92h60.09c-15.62-52.47-67.39-73.56-130.79-80.46V43.43a35.69,35.69,0,0,1-71.37,0V11.5c-63.41,6.9-115.18,28-130.8,80.46H872.3a35.69,35.69,0,0,1,0,71.38h-69c0,.33,0,.62,0,.95v54.47h87.78a35.69,35.69,0,0,1,0,71.37H803.29v34.75q0,10.72.56,20.66H872.3a35.69,35.69,0,1,1,0,71.37H819.8c22.31,47.58,83.07,59.69,158.88,59.69,58.56,0,108.14-7.23,138-32.44"/><rect class="cls-4" x="953.59" y="476.61" width="50.19" height="74.49"/><polygon class="cls-4" points="819.79 586.5 828.67 551.1 1128.7 551.1 1137.58 586.49 819.79 586.5"/></g></g></svg>